<svg width="18" height="13" viewBox="0 0 18 13" fill="none" xmlns="http://www.w3.org/2000/svg">
<path fill-rule="evenodd" clip-rule="evenodd" d="M10.3178 9.12898L10.3848 9.02898L11.7868 6.62698C11.7868 6.62698 11.9828 6.26198 12.0528 6.12698L12.1728 5.89298L12.2048 5.82998L12.2128 5.81398L12.2408 5.75898C12.2719 5.68915 12.2983 5.61732 12.3198 5.54398L12.6048 6.18198L12.8748 6.70898C12.1717 7.12944 11.6449 7.79056 11.392 8.56978C11.1391 9.349 11.1773 10.1935 11.4995 10.9467C11.8217 11.6999 12.4061 12.3107 13.1442 12.666C13.8824 13.0213 14.7244 13.0969 15.514 12.8788C16.3037 12.6607 16.9875 12.1637 17.4388 11.48C17.89 10.7962 18.078 9.97203 17.968 9.16022C17.8579 8.34842 17.4573 7.60403 16.8404 7.06504C16.2234 6.52605 15.432 6.22901 14.6128 6.22898C14.4714 6.22892 14.3301 6.2376 14.1898 6.25498L14.0418 5.94398L11.7238 0.457977C11.7148 0.434977 11.6938 0.388977 11.6938 0.388977C11.635 0.272352 11.5449 0.174337 11.4337 0.105837C11.3225 0.0373367 11.1944 0.00103705 11.0638 0.000976562H8.23879C8.05155 0.000976562 7.87197 0.0753587 7.73957 0.207759C7.60717 0.34016 7.53279 0.519734 7.53279 0.706976C7.53279 0.894219 7.60717 1.07379 7.73957 1.20619C7.87197 1.33859 8.05155 1.41298 8.23879 1.41298H10.6058L11.1428 2.90598C10.6498 2.97998 10.0028 3.08698 9.34979 3.21698C8.61971 3.3457 7.9023 3.5381 7.20579 3.79198C6.91686 3.91613 6.63479 4.05566 6.36079 4.20998C6.17894 4.01544 5.95951 3.85983 5.71577 3.75258C5.47204 3.64532 5.20907 3.58864 4.94279 3.58598H2.11879C1.51639 3.63034 0.955852 3.91071 0.55905 4.36612C0.162248 4.82153 -0.0387387 5.41517 -0.000211929 6.01798C-0.0070656 6.27859 0.0619705 6.53558 0.198497 6.75768C0.335024 6.97978 0.533156 7.15742 0.768788 7.26898C0.449543 7.67048 0.221607 8.13671 0.10084 8.63524C-0.0199277 9.13377 -0.0306268 9.65263 0.0694866 10.1557C0.1696 10.6588 0.378122 11.134 0.680545 11.5484C0.982967 11.9627 1.37203 12.3061 1.82066 12.5548C2.26929 12.8035 2.76672 12.9515 3.27834 12.9884C3.78996 13.0253 4.30349 12.9504 4.78319 12.7687C5.26289 12.587 5.69725 12.303 6.05604 11.9364C6.41484 11.5698 6.68945 11.1295 6.86079 10.646H7.76779C8.28906 10.6414 8.79978 10.4986 9.24779 10.2321C9.6958 9.96556 10.065 9.5849 10.3178 9.12898ZM6.35379 7.35198C6.76544 7.89812 7.00872 8.55255 7.05379 9.23498L7.76679 9.23798C8.01961 9.24551 8.26913 9.17913 8.48479 9.04698C8.7506 8.86278 8.97422 8.62418 9.14079 8.34698C9.34979 8.03398 9.56179 7.69198 9.76179 7.35198H6.35379ZM11.0268 4.31398C11.0338 4.37798 11.0408 4.45498 11.0408 4.54298C11.0613 4.75869 11.0308 4.97621 10.9518 5.17798C10.9232 5.23475 10.8897 5.28895 10.8518 5.33998C10.7146 5.52894 10.5339 5.68211 10.3251 5.78654C10.1162 5.89097 9.88528 5.9436 9.65179 5.93998H7.06279V5.37298L7.26279 5.26598C7.44979 5.16798 7.67679 5.05498 7.85679 4.98098C8.728 4.60259 9.6587 4.37956 10.6068 4.32198C10.7648 4.31398 10.9138 4.31398 11.0268 4.31398ZM4.94679 4.98298C5.24579 4.98298 5.53979 5.40198 5.62679 5.78298H1.43879C1.52579 5.40398 1.81879 4.98298 2.11879 4.98298H4.94679ZM4.70804 11.2319C4.35957 11.4647 3.94989 11.589 3.53079 11.589C2.96879 11.589 2.42982 11.3657 2.03243 10.9683C1.63504 10.5709 1.41179 10.032 1.41179 9.46998C1.41179 9.05088 1.53607 8.64119 1.7689 8.29272C2.00174 7.94425 2.33269 7.67266 2.71988 7.51228C3.10708 7.35189 3.53314 7.30993 3.94418 7.39169C4.35523 7.47345 4.7328 7.67527 5.02915 7.97162C5.32549 8.26796 5.52731 8.64553 5.60907 9.05658C5.69083 9.46763 5.64887 9.89369 5.48849 10.2809C5.32811 10.6681 5.05651 10.999 4.70804 11.2319ZM16.2215 10.6896C16.4342 10.3712 16.5478 9.99688 16.5478 9.61398C16.5479 9.3597 16.4979 9.10789 16.4007 8.87295C16.3034 8.638 16.1608 8.42452 15.981 8.24472C15.8012 8.06492 15.5878 7.92233 15.3528 7.82508C15.1179 7.72783 14.8661 7.67785 14.6118 7.67798C14.2289 7.67798 13.8546 7.79152 13.5362 8.00425C13.2178 8.21698 12.9697 8.51934 12.8232 8.8731C12.6766 9.22686 12.6383 9.61612 12.713 9.99167C12.7877 10.3672 12.9721 10.7122 13.2428 10.9829C13.5136 11.2537 13.8585 11.4381 14.2341 11.5128C14.6096 11.5875 14.9989 11.5491 15.3527 11.4026C15.7064 11.2561 16.0088 11.0079 16.2215 10.6896Z" fill="#027A7A"/>
<path d="M15.0648 3.48097C15.0648 3.46699 15.0649 3.45313 15.065 3.43959C15.0653 3.4134 15.0655 3.38838 15.0648 3.36597V3.36097C15.0648 3.34856 15.0648 3.33611 15.0648 3.32362C15.0649 3.22338 15.065 3.12112 15.0588 3.02597C15.054 2.9129 15.0317 2.80125 14.9928 2.69497C14.9477 2.57571 14.8644 2.47477 14.7558 2.40797C14.6343 2.33822 14.4958 2.3036 14.3558 2.30797C14.0436 2.30797 13.7443 2.43198 13.5235 2.65271C13.3028 2.87344 13.1788 3.17281 13.1788 3.48497C13.1788 3.79713 13.3028 4.0965 13.5235 4.31723C13.7443 4.53797 14.0436 4.66197 14.3558 4.66197C14.4958 4.66639 14.6343 4.63177 14.7558 4.56197C14.8644 4.49517 14.9477 4.39423 14.9928 4.27497C15.0317 4.16869 15.054 4.05704 15.0588 3.94397C15.0648 3.83697 15.0648 3.71997 15.0648 3.60897V3.48097Z" fill="#027A7A"/>
</svg>
