<svg width="18" height="18" viewBox="0 0 18 18" fill="none" xmlns="http://www.w3.org/2000/svg">
<path d="M7.95673 5.28907C8.1083 5.23479 8.35182 5.17129 8.35182 5.17129V4.74859L8.3518 4.74629C8.34744 4.5533 8.41676 4.36531 8.54676 4.21892C8.72406 4.05322 8.90049 4.01211 9.10687 4.00017C9.20635 3.99803 9.30515 4.01611 9.39696 4.05322C9.48927 4.09054 9.57256 4.14639 9.64121 4.21672C9.71046 4.28731 9.76461 4.37043 9.80066 4.46124C9.83671 4.55205 9.85396 4.64883 9.85154 4.74605V5.17129L9.93406 5.18737C10.1766 5.23463 10.4134 5.30657 10.6406 5.40192L10.6428 5.40281C10.9837 5.53647 11.3573 5.77323 11.4974 5.89723C11.6376 6.02124 11.7508 6.14429 11.8045 6.25325C11.8583 6.3622 11.8858 6.48153 11.8852 6.60222L11.8853 6.60394C11.8874 6.77971 11.8284 6.95126 11.7176 7.09066L11.7157 7.09321C11.6587 7.16961 11.584 7.23209 11.4974 7.27543C11.4116 7.31836 11.3167 7.34126 11.22 7.34222C11.0327 7.33255 10.8523 7.27069 10.7002 7.16428L10.6861 7.15514L10.676 7.14772C10.4442 6.9677 10.1893 6.81806 9.9178 6.7028L9.91326 6.70112C9.65511 6.60569 9.38052 6.56008 9.1047 6.56677C9.00798 6.56087 8.91146 6.56445 8.8165 6.57714C8.59241 6.60709 8.37703 6.6878 8.18829 6.81464L8.18484 6.81718C8.08686 6.88918 8.00841 6.98392 7.95673 7.09313C7.90601 7.2003 7.88268 7.318 7.88881 7.43606C7.88477 7.5039 7.89495 7.57182 7.91872 7.63563C7.94331 7.70163 7.9818 7.76166 8.03159 7.81181L8.03373 7.81385C8.16566 7.93924 8.32311 8.03583 8.49569 8.09741L8.49703 8.09787C8.68396 8.16164 8.93649 8.23249 9.25677 8.30965C9.30452 8.32115 9.35377 8.33279 9.40453 8.34457C9.82891 8.44071 10.2452 8.56827 10.6497 8.72612C11.0007 8.86345 11.3111 9.08347 11.5533 9.36626C11.833 9.7055 11.976 10.1323 11.9563 10.5666L11.9564 10.5728C11.961 10.8616 11.9031 11.1481 11.7865 11.4138C11.6699 11.6794 11.4965 11.9189 11.2788 12.1153C10.9066 12.4571 10.4445 12.6918 9.94353 12.793L9.8617 12.8095L9.86167 13.2515L9.86174 13.254C9.86416 13.3513 9.84688 13.448 9.81083 13.5388C9.77477 13.6296 9.72041 13.713 9.65116 13.7836C9.58256 13.8539 9.49947 13.9096 9.40717 13.947C9.31486 13.9843 9.21549 14.0022 9.11547 13.9998L9.11107 13.9999C9.01067 14.0017 8.91095 13.9839 8.81785 13.9475C8.72477 13.9111 8.64028 13.8568 8.56933 13.7881L8.56616 13.785L8.56357 13.7819L8.56104 13.7792C8.42834 13.6348 8.35742 13.4469 8.36199 13.2539V12.8461L8.27525 12.8329C7.97765 12.7878 7.68463 12.7175 7.39949 12.623L7.38385 12.6178H7.37556C7.00226 12.4871 6.65612 12.292 6.35339 12.0422L6.34991 12.0395C6.25055 11.9644 6.1709 11.8678 6.11717 11.7574C6.06345 11.6471 6.03721 11.5262 6.04024 11.4043L6.04015 11.3997C6.03653 11.2267 6.09124 11.057 6.19615 10.9169C6.25316 10.8405 6.3279 10.778 6.4145 10.7347C6.5003 10.6918 6.59525 10.6688 6.69186 10.6678C6.70095 10.6683 6.70957 10.6687 6.71779 10.6691C6.87889 10.677 6.88492 10.6773 7.24466 10.8641C7.62275 11.0604 8.37424 11.4234 9.00743 11.4387C9.34462 11.4635 9.68146 11.3833 9.96924 11.2091L9.97463 11.2054C10.0711 11.1381 10.1484 11.0476 10.1989 10.9422C10.2481 10.8395 10.2627 10.734 10.2627 10.6129C10.2627 10.4815 10.2194 10.3863 10.1304 10.3035C10.0415 10.2208 9.85996 10.1024 9.699 10.0498C9.41487 9.95214 9.12544 9.86987 8.83202 9.80341C8.39668 9.70084 7.96876 9.57035 7.55104 9.41278C7.18423 9.26746 6.85964 9.0369 6.6054 8.74139C6.32235 8.38572 6.17771 7.94417 6.19621 7.49481L6.19606 7.48831C6.18973 7.20674 6.24092 6.92671 6.34671 6.66454C6.45245 6.40252 6.61063 6.16352 6.81216 5.96154C7.05679 5.72157 7.30707 5.57093 7.67043 5.4049C7.78013 5.35477 7.84318 5.32973 7.95673 5.28907Z" fill="#02A117"/>
<path fill-rule="evenodd" clip-rule="evenodd" d="M18 9C18 13.9706 13.9706 18 9 18C4.02944 18 0 13.9706 0 9C0 4.02944 4.02944 0 9 0C13.9706 0 18 4.02944 18 9ZM16.5 9C16.5 13.1421 13.1421 16.5 9 16.5C4.85786 16.5 1.5 13.1421 1.5 9C1.5 4.85786 4.85786 1.5 9 1.5C13.1421 1.5 16.5 4.85786 16.5 9Z" fill="#02A117"/>
</svg>
