<svg width="18" height="16" viewBox="0 0 18 16" fill="none" xmlns="http://www.w3.org/2000/svg">
<path fill-rule="evenodd" clip-rule="evenodd" d="M9 14.4C9.27735 14.3999 9.67153 14.1611 9.99949 13.9579C10.8996 13.4002 11.7591 12.7781 12.5711 12.096C15.2955 9.69758 16.5 7.2994 16.5 5.19751C16.5 3.18842 14.79 1.50001 13.05 1.50001H13.0471C12.4878 1.49893 11.9356 1.62526 11.4324 1.86938C10.9496 2.10769 10 3 10 3L8.99981 4L8 3C8 3 7.05053 2.10762 6.56777 1.86938C6.06457 1.62523 5.51232 1.4989 4.95297 1.50001L4.95 1.50001C3.20955 1.50001 1.5 3.18728 1.5 5.19751C1.5 7.29964 2.70455 9.69783 5.4289 12.0963C6.24072 12.7783 7.10002 13.4003 7.99998 13.9579C8.32795 14.1611 8.72265 14.4001 9 14.4ZM4.45078 13.2336C1.53906 10.6745 0 7.89571 0 5.19751C0 2.42866 2.313 1.01787e-05 4.95 1.01787e-05C5.73884 -0.00155314 6.51765 0.176982 7.22703 0.52201C7.47486 0.64399 7.71077 0.786803 7.93241 0.948463C8.34191 1.24715 8.7027 1.61017 9 2.02501C9.29737 1.61022 9.65818 1.24722 10.0677 0.948542C10.2894 0.786857 10.5253 0.644018 10.7732 0.52201C11.4825 0.177031 12.2612 -0.00150303 13.05 1.01787e-05C15.6868 1.01787e-05 18 2.43001 18 5.19751C18 7.89548 16.4609 10.6742 13.5492 13.2334C12.4435 14.1635 11.2553 14.9896 9.99949 15.7014C9.99949 15.7014 9.40737 15.9999 9 16C8.59244 16.0001 8 15.7014 8 15.7014C6.74438 14.9897 5.55627 14.1637 4.45078 13.2336Z" fill="#580F78"/>
</svg>
