<svg width="16" height="17" viewBox="0 0 16 17" fill="none" xmlns="http://www.w3.org/2000/svg">
<g opacity="0.9">
<path fill-rule="evenodd" clip-rule="evenodd" d="M13.1737 2.16731C13.4495 2.15295 13.6847 2.36507 13.699 2.64111L13.6992 2.64481L13.6996 2.65334L13.701 2.68393C13.7021 2.71002 13.7034 2.7472 13.7047 2.79296C13.7073 2.88421 13.7094 3.01086 13.7079 3.15251C13.7051 3.42032 13.6893 3.79606 13.6176 4.0784C13.5489 4.34877 13.4597 4.61496 13.3893 4.81015C13.3764 4.84576 13.3641 4.87925 13.3526 4.91025C13.6772 5.10982 13.9119 5.37211 14.0733 5.6042C14.1951 5.77933 14.2801 5.94388 14.335 6.06549C14.3626 6.12659 14.383 6.17768 14.3969 6.21493C14.4039 6.23358 14.4093 6.24883 14.4132 6.26021L14.4179 6.27435L14.4183 6.27555L14.4189 6.27727C14.5976 6.81449 14.6733 7.277 14.6634 7.748C14.6536 8.2135 14.5604 8.66815 14.4261 9.18219C14.0874 10.4791 13.5775 11.1043 12.6897 12.0796C12.079 12.7504 11.1157 13.5632 9.86061 14.1283C8.58478 14.7027 7.57167 14.8474 6.3512 14.8322C5.76582 14.825 5.32129 14.8106 4.89238 14.7413C4.4567 14.671 4.05146 14.5468 3.53237 14.335C3.24114 14.2161 2.93659 14.0271 2.69907 13.7701C2.45959 13.511 2.27303 13.1642 2.27303 12.7469C2.27303 12.4555 2.39948 12.2323 2.56933 12.0623C2.24841 11.8013 1.97501 11.4701 1.77501 11.0697C1.07538 9.66916 1.34502 8.6395 1.64154 7.50716C1.64154 7.50716 1.79733 6.70983 2.14771 6.8793C2.65517 7.12475 3.16708 7.14464 3.16708 7.14464L3.17552 7.14678C3.20004 7.05915 3.22885 6.96106 3.26175 6.85694C3.37865 6.48701 3.56016 5.99782 3.80424 5.64217C4.04681 5.28874 4.45015 4.92378 4.76471 4.66333C4.92702 4.52894 5.07549 4.41448 5.18344 4.33355C5.23751 4.29301 5.28168 4.26069 5.31263 4.2383L5.34881 4.2123L5.35874 4.20525L5.36153 4.20327L5.36275 4.20241C5.5434 4.07547 5.88104 4.21004 5.81437 4.5437C5.74771 4.87736 5.74987 5.32739 5.74987 5.32739C5.75805 5.71743 5.97954 6.45482 7.10898 7.58536C7.53045 8.00724 7.79121 8.51869 7.87958 9.07893C8.06993 8.77877 8.24609 8.46238 8.40077 8.16136C8.57671 7.81899 8.71923 7.50784 8.81769 7.28243C8.86686 7.16986 8.90488 7.07904 8.93042 7.01682C8.94319 6.98572 8.95283 6.9618 8.95918 6.94592L8.96526 6.93061L8.96673 6.92634C8.96995 6.91707 8.97451 6.90415 8.98041 6.88791C8.9922 6.85544 9.0094 6.80959 9.032 6.75303C9.07712 6.64011 9.14427 6.48333 9.23369 6.30434C9.41016 5.95105 9.68384 5.48982 10.0617 5.11155L10.0626 5.11066L10.0636 5.1097L10.0657 5.10761L10.0708 5.10271C10.0745 5.09914 10.079 5.09496 10.0842 5.09023C10.0946 5.08077 10.108 5.0691 10.1244 5.05565C10.1573 5.02876 10.2023 4.99477 10.2602 4.95725C10.3763 4.88208 10.5433 4.79325 10.7663 4.71885C11.1509 4.59052 11.6885 4.50961 12.3999 4.60225C12.4145 4.56363 12.431 4.51918 12.4487 4.47021C12.5134 4.29091 12.5908 4.05837 12.6484 3.83174C12.6877 3.67713 12.7052 3.40889 12.708 3.14198C12.7093 3.01625 12.7074 2.90284 12.7051 2.82088C12.704 2.78003 12.7027 2.74731 12.7018 2.72515L12.7007 2.70023L12.7005 2.69434L12.7004 2.69314C12.6861 2.41713 12.898 2.18168 13.1737 2.16731ZM7.20847 9.96957C7.16284 10.018 7.11693 10.0642 7.0708 10.1076C6.92117 10.2486 6.78406 10.3668 6.65561 10.467C6.5619 10.1228 6.39361 9.81254 6.16964 9.58174C5.53054 8.92315 5.432 8.52074 5.42842 8.34489V7.71083C5.42842 7.4186 5.10251 7.41291 4.92367 7.5423L4.92276 7.54295L4.92091 7.5443L4.91467 7.54887L4.89266 7.56515C4.874 7.57905 4.84759 7.59894 4.81537 7.62381C4.75111 7.6734 4.66274 7.74355 4.56597 7.82602C4.38217 7.98269 4.13234 8.21358 3.97767 8.44559C3.81485 8.68982 3.7032 9.05341 3.63589 9.30812C3.63058 9.32823 3.62545 9.34806 3.62049 9.36755C3.38208 9.34836 3.15144 9.28552 3.01437 9.21489L3.0008 9.20789C2.89392 9.15263 2.81155 9.11004 2.71437 9.1692C2.67524 9.19303 2.65123 9.29473 2.6257 9.40287L2.61444 9.45014C2.51491 9.8604 2.46337 10.239 2.47935 10.6123C1.98689 9.57239 2.15582 8.85303 2.4306 7.78832C2.62705 7.86083 2.80952 7.91429 2.96163 7.95303C3.09685 7.98747 3.21021 8.0108 3.29095 8.0257C3.33137 8.03315 3.36376 8.03852 3.38678 8.04212L3.41419 8.04624L3.42235 8.04739L3.42499 8.04775L3.4265 8.04795C3.64104 8.07623 3.84168 7.93527 3.88806 7.72371L3.88844 7.72199L3.89028 7.71381L3.89822 7.67961C3.90537 7.64927 3.91621 7.60454 3.93054 7.54868C3.95926 7.43671 4.0017 7.28136 4.05632 7.10849C4.16921 6.75123 4.32103 6.36236 4.49114 6.11449C4.59648 5.96101 4.75919 5.78784 4.94064 5.61778C5.04083 6.2774 5.46707 7.12148 6.51975 8.17518C6.88769 8.54348 7.20167 9.35331 7.20847 9.96957ZM5.89581 10.9155C5.86366 10.9284 5.83152 10.9407 5.7993 10.9524C5.53266 11.0492 5.27085 11.1076 4.93177 11.1833C4.737 11.2268 4.51664 11.2759 4.25531 11.3413C4.00041 11.4051 3.69586 11.4821 3.40864 11.5845C3.18825 11.0695 3.18779 10.614 3.24853 10.1245C3.32441 10.1496 3.39694 10.1717 3.46229 10.1907C3.56956 10.2218 3.66381 10.2462 3.73148 10.263C3.7654 10.2714 3.79284 10.2779 3.81215 10.2823L3.83485 10.2875L3.84126 10.289L3.84317 10.2894L3.84402 10.2896C3.95471 10.3139 4.07067 10.292 4.16487 10.2289C4.25903 10.1659 4.32351 10.0673 4.34346 9.9557L4.34369 9.95443L4.34475 9.94868L4.34938 9.92426C4.34938 9.92426 4.37341 9.60612 4.44152 9.34836C4.4949 9.14636 4.55792 9.06219 4.61993 8.97935C4.63705 8.95648 4.6541 8.93371 4.67084 8.9086C4.67804 8.8978 4.68585 8.88672 4.69423 8.8754C4.82498 9.24541 5.09605 9.67259 5.57189 10.1629C5.73875 10.3349 5.86032 10.612 5.89581 10.9155ZM10.4369 5.94339L10.8735 6.59885L11.9219 6.33648C12.0928 6.29373 12.272 6.36309 12.3697 6.50975L12.8735 7.26616L13.7654 7.04296C13.7331 6.88612 13.6879 6.72 13.6277 6.53933L13.6255 6.5325L13.6166 6.50765C13.6084 6.48577 13.5949 6.45179 13.5756 6.40909C13.5368 6.32312 13.4759 6.2052 13.3894 6.0808C13.2165 5.83223 12.9599 5.58314 12.5932 5.47885C11.8337 5.32914 11.3289 5.41038 11.0298 5.51019C10.8778 5.56091 10.774 5.61805 10.7129 5.65758L10.6461 5.70629C10.6461 5.70629 10.5025 5.8605 10.4369 5.94339ZM13.823 7.88837L12.7907 8.14668C12.6199 8.18943 12.4406 8.12007 12.343 7.97341L11.8392 7.217L10.7907 7.47937C10.6199 7.52212 10.4406 7.45276 10.343 7.3061L9.95572 6.72466C9.89005 6.85954 9.83999 6.97708 9.80573 7.06282C9.78667 7.11053 9.77261 7.14809 9.76357 7.17297C9.75905 7.1854 9.7558 7.19464 9.75381 7.20037L9.73294 7.25563C9.72566 7.27386 9.71502 7.30025 9.7012 7.33391C9.67356 7.40123 9.63313 7.49778 9.58124 7.61658C9.47758 7.8539 9.32757 8.18143 9.14182 8.54291C8.7767 9.25343 8.2501 10.1421 7.64193 10.715C7.05675 11.2663 6.5928 11.5515 6.08357 11.7365C5.7686 11.8509 5.4223 11.9286 5.04287 12.0139C4.85599 12.0558 4.66096 12.0996 4.45742 12.1506C4.08107 12.2447 3.70681 12.3429 3.42696 12.4772C3.12031 12.6243 3.10636 12.7256 3.10636 12.7469C3.10636 12.9015 3.17344 13.0551 3.31077 13.2036C3.45006 13.3543 3.64552 13.4803 3.84702 13.5626C4.32794 13.7589 4.67025 13.8606 5.025 13.9178C5.38653 13.9762 5.77533 13.9909 6.36153 13.9982C7.4842 14.0121 8.37322 13.8833 9.51878 13.3675C10.6381 12.8636 11.4289 12.2268 12.079 11.512C12.8597 10.6537 13.3374 10.0528 13.6199 8.9712C13.7307 8.5472 13.8005 8.20775 13.823 7.88837Z" fill="#00A296"/>
</g>
</svg>
