<svg width="16" height="18" viewBox="0 0 16 18" fill="none" xmlns="http://www.w3.org/2000/svg">
<path fill-rule="evenodd" clip-rule="evenodd" d="M3 6C3.87423 6 4.66112 5.62606 5.20944 5.0294L10.1319 8.11745C10.0462 8.39648 10 8.69285 10 9C10 9.30715 10.0462 9.60352 10.1319 9.88255L5.20944 12.9706C4.66112 12.3739 3.87423 12 3 12C1.34315 12 0 13.3431 0 15C0 16.6569 1.34315 18 3 18C4.65685 18 6 16.6569 6 15C6 14.758 5.97135 14.5227 5.91725 14.2973L10.9181 11.1601C11.4576 11.6801 12.1915 12 13 12C14.6569 12 16 10.6569 16 9C16 7.34315 14.6569 6 13 6C12.1915 6 11.4576 6.31986 10.9181 6.83994L5.91725 3.7027C5.97135 3.4773 6 3.24199 6 3C6 1.34315 4.65685 0 3 0C1.34315 0 0 1.34315 0 3C0 4.65685 1.34315 6 3 6ZM3 4.5C3.82843 4.5 4.5 3.82843 4.5 3C4.5 2.17157 3.82843 1.5 3 1.5C2.17157 1.5 1.5 2.17157 1.5 3C1.5 3.82843 2.17157 4.5 3 4.5ZM3 16.5C3.82843 16.5 4.5 15.8284 4.5 15C4.5 14.1716 3.82843 13.5 3 13.5C2.17157 13.5 1.5 14.1716 1.5 15C1.5 15.8284 2.17157 16.5 3 16.5ZM14.5 9C14.5 9.82843 13.8284 10.5 13 10.5C12.1716 10.5 11.5 9.82843 11.5 9C11.5 8.17157 12.1716 7.5 13 7.5C13.8284 7.5 14.5 8.17157 14.5 9Z" fill="#580F78"/>
</svg>
