<svg width="16" height="18" viewBox="0 0 16 18" fill="none" xmlns="http://www.w3.org/2000/svg">
<path fill-rule="evenodd" clip-rule="evenodd" d="M10.9286 9.05302C12.1836 8.14463 13 6.66766 13 5C13 2.23858 10.7614 0 8 0C5.23858 0 3 2.23858 3 5C3 6.66766 3.81643 8.14463 5.0714 9.05302C2.1018 10.2218 0 13.1154 0 16.5V16.6429C0 17.3924 0.607613 18 1.35714 18H14.6429C15.3924 18 16 17.3924 16 16.6429V16.5C16 13.1154 13.8982 10.2218 10.9286 9.05302ZM11.5 5C11.5 6.933 9.933 8.5 8 8.5C6.067 8.5 4.5 6.933 4.5 5C4.5 3.067 6.067 1.5 8 1.5C9.933 1.5 11.5 3.067 11.5 5ZM8 10C4.41015 10 1.5 12.9101 1.5 16.5H14.5C14.5 12.9101 11.5899 10 8 10Z" fill="white"/>
</svg>
