<svg width="14" height="16" viewBox="0 0 14 16" fill="none" xmlns="http://www.w3.org/2000/svg">
<path d="M5.43167 15.6133C4.94494 15.3575 4.52758 14.9875 4.21488 14.5352C1.75188 11.0292 0.500032 8.39608 0.500032 6.70508C0.494605 4.93671 1.17853 3.23559 2.40628 1.96289C2.99989 1.34189 3.71304 0.847446 4.50296 0.509766C5.29289 0.172085 6.14291 -0.00195312 7.00199 -0.00195312C7.86106 -0.00195312 8.71108 0.172085 9.50101 0.509766C10.2909 0.847446 11.0041 1.34189 11.5977 1.96289C12.8216 3.23759 13.5032 4.93791 13.4981 6.70508C13.4981 8.39608 12.2461 11.0292 9.78909 14.5352C9.32065 15.2175 8.61797 15.7036 7.81449 15.9023C7.011 16.101 6.16222 15.9987 5.42972 15.6133H5.43167ZM3.4014 3C2.44205 3.99594 1.90776 5.32616 1.91214 6.70898C1.91214 8.04698 3.13455 10.5265 5.35355 13.6875C5.53976 13.9519 5.78694 14.1681 6.07327 14.3184C6.35929 14.4696 6.67746 14.5496 7.00101 14.5508C7.3223 14.5495 7.63833 14.4694 7.92191 14.3184C8.2091 14.1669 8.45786 13.9511 8.64749 13.6875C10.8685 10.5275 12.0899 8.04698 12.0899 6.70898C12.0908 5.32472 11.5528 3.99448 10.5899 3C10.1263 2.51248 9.56849 2.12462 8.95023 1.85938C8.33197 1.59413 7.66596 1.45703 6.9932 1.45703C6.32044 1.45703 5.6554 1.59413 5.03714 1.85938C4.41888 2.12462 3.86109 2.51248 3.39749 3H3.4014ZM6.41507 9.44922C5.83396 9.33142 5.30007 9.04533 4.87991 8.62695C4.45982 8.20793 4.17317 7.67359 4.05667 7.0918C3.93879 6.50946 4.00024 5.90473 4.23148 5.35742C4.4199 4.90118 4.71734 4.49899 5.09866 4.18555C5.47999 3.8721 5.93294 3.6571 6.41702 3.56055C6.90111 3.464 7.40166 3.48965 7.87406 3.63281C8.34645 3.77598 8.77599 4.03377 9.12503 4.38281C9.47407 4.73185 9.73187 5.16041 9.87503 5.63281C10.0182 6.10521 10.0429 6.60576 9.94632 7.08984C9.84977 7.57393 9.63477 8.02688 9.32132 8.4082C9.00788 8.78953 8.60568 9.08697 8.14945 9.27539C7.7821 9.4266 7.38849 9.50587 6.99124 9.50586C6.79843 9.50435 6.60598 9.48371 6.41702 9.44531L6.41507 9.44922ZM6.70511 5.0332C6.41505 5.09206 6.14923 5.23551 5.94046 5.44531C5.72855 5.6529 5.58473 5.9197 5.52835 6.21094C5.48472 6.42847 5.49007 6.65392 5.54398 6.86914C5.59789 7.08436 5.69885 7.2838 5.83988 7.45508C5.9809 7.62636 6.15854 7.76516 6.35941 7.85938C6.56028 7.95359 6.77914 8.00107 7.00101 8C7.21099 8.00047 7.41832 7.95599 7.61038 7.87109C7.80244 7.7862 7.97525 7.66342 8.11624 7.50781C8.25724 7.3522 8.36412 7.16822 8.42972 6.96875C8.49532 6.76928 8.51821 6.55853 8.4971 6.34961C8.47599 6.14069 8.41085 5.93818 8.30667 5.75586C8.20249 5.57354 8.06091 5.41527 7.89163 5.29102C7.72236 5.16676 7.52941 5.07991 7.32425 5.03516C7.11909 4.9904 6.90685 4.98878 6.7012 5.03125L6.70511 5.0332Z" fill="white"/>
</svg>
