<svg width="18" height="18" viewBox="0 0 18 18" fill="none" xmlns="http://www.w3.org/2000/svg">
<path d="M12.0262 17.0594C11.501 16.5468 10.934 16.0353 10.2772 16.1368C9.52269 16.2471 9.48975 17.0332 8.67962 17.0915C8.47512 17.0924 8.27256 17.0517 8.08419 16.9721C7.89581 16.8925 7.72552 16.7755 7.5836 16.6283C7.2605 16.3635 6.95341 16.0979 6.48733 16.1757C5.84979 16.2842 5.51494 16.9342 4.71873 16.834C4.61173 16.8222 4.50664 16.797 4.40597 16.7589C4.26961 16.7102 4.14053 16.6431 4.02228 16.5595C3.48743 16.0955 3.05786 15.5226 2.76235 14.8792C2.72539 14.9454 2.67274 15.0016 2.60902 15.0428C2.5453 15.084 2.47245 15.1089 2.39686 15.1154C2.32097 15.122 2.24463 15.1095 2.17482 15.079C2.10501 15.0486 2.04395 15.0011 1.99722 14.9409C-1.08991 11.0413 -0.538165 5.33751 3.23679 2.12783C7.01175 -1.08184 12.6134 -0.607883 15.8205 3.18794C19.027 6.98683 18.6528 12.7074 14.9794 16.0375C14.8992 16.1168 14.8129 16.1896 14.7211 16.2551C14.6605 16.3873 14.5935 16.5214 14.5187 16.6675C14.0947 17.461 13.8862 17.8594 13.5677 17.9681C13.5071 17.9882 13.4439 17.9988 13.3801 17.9995C12.946 18.0166 12.5055 17.5563 12.0262 17.0594ZM11.573 15.3405C12.1355 15.7397 13.2321 16.7447 13.2321 16.7447C13.4404 16.7086 13.6975 16.4263 13.6543 16.3917C13.167 15.9974 12.7926 15.043 12.7926 14.0389C12.7926 12.8763 13.177 11.9709 13.7556 11.6558V8.33291C13.7557 8.30174 13.7515 8.27069 13.7432 8.24065H2.84105C2.83353 8.27088 2.82902 8.30179 2.82758 8.33291V12.7651C3.18195 13.6933 3.66015 14.5693 4.2492 15.3694C4.32426 15.4667 4.4164 15.5496 4.52111 15.614C4.5452 15.6279 4.57024 15.6401 4.59605 15.6506C4.71428 15.7015 4.84241 15.7254 4.97105 15.7204C5.17386 15.698 5.36862 15.6284 5.53984 15.5174C5.89773 15.2234 6.35229 15.0733 6.8149 15.0962C7.69358 15.1867 7.88526 16.0613 8.58152 16.014C9.22473 15.9689 9.5066 15.3764 10.278 15.1159C10.6876 15.0106 11.0953 15.0106 11.5735 15.3405H11.573ZM14.1408 7.31256C14.3095 7.42442 14.4473 7.57682 14.5418 7.75576C14.6362 7.9347 14.6843 8.13445 14.6815 8.33677V12.0125C14.682 12.074 14.6704 12.1351 14.6473 12.1922C14.6243 12.2493 14.5902 12.3013 14.547 12.3453C14.5039 12.3892 14.4525 12.4242 14.3958 12.4482C14.3391 12.4723 14.2782 12.4849 14.2167 12.4855C14.2009 12.4855 14.0833 12.5443 13.9543 12.8143C13.7906 13.2023 13.7107 13.6205 13.7199 14.0416C13.6841 14.5662 13.8242 15.0878 14.1181 15.5239C14.2104 15.481 14.2923 15.4183 14.3578 15.3404H14.3556C17.5139 12.4907 17.989 7.64171 15.4457 4.21258C12.9025 0.782247 8.19835 -0.0722652 4.64979 2.25082C1.10124 4.5739 -0.0955703 9.29124 1.90307 13.0779V8.33465C1.90207 8.3032 1.90303 8.27168 1.90594 8.24034L1.53573 8.24165C1.53573 6.55291 2.64745 5.18748 6.2629 5.18748C9.17877 5.20491 12.8388 6.0856 14.1409 7.30839L14.1408 7.31256ZM9.6718 10.8299C9.6718 9.97621 10.0333 9.29353 10.4837 9.29353C10.9341 9.29353 11.2944 9.97895 11.2944 10.8299C11.2944 11.6789 10.9329 12.3646 10.4837 12.3646C10.0345 12.3646 9.67046 11.7053 9.67046 10.8259L9.6718 10.8299ZM4.13922 10.8299C4.13922 9.97621 4.50088 9.29353 4.9512 9.29353C5.40152 9.29353 5.76184 9.97895 5.76184 10.8299C5.76184 11.6789 5.39916 12.3646 4.9512 12.3646C4.50324 12.3646 4.13769 11.7053 4.13769 10.8259L4.13922 10.8299Z" fill="#7B1FA2"/>
</svg>
