<svg width="16" height="16" viewBox="0 0 16 16" fill="none" xmlns="http://www.w3.org/2000/svg">
<path fill-rule="evenodd" clip-rule="evenodd" d="M11.3913 12.452C8.64242 14.6717 4.60476 14.5043 2.05025 11.9497C-0.683417 9.21608 -0.683418 4.78392 2.05025 2.05025C4.78392 -0.683418 9.21608 -0.683418 11.9497 2.05025C14.5043 4.60476 14.6717 8.64242 12.452 11.3913L15.7803 14.7199C15.9271 14.8667 16.0004 15.0592 16 15.2516C15.9996 15.4431 15.9264 15.6345 15.7803 15.7806C15.6292 15.9316 15.4297 16.0048 15.2317 16C15.0459 15.9955 14.8615 15.9223 14.7197 15.7806L11.3913 12.452ZM10.8891 10.8891C8.7412 13.037 5.2588 13.037 3.11091 10.8891C0.963029 8.7412 0.963029 5.2588 3.11091 3.11091C5.2588 0.963029 8.7412 0.963029 10.8891 3.11091C13.037 5.2588 13.037 8.7412 10.8891 10.8891Z" fill="#A8ADB7"/>
</svg>
