<svg width="18" height="18" viewBox="0 0 18 18" fill="none" xmlns="http://www.w3.org/2000/svg">
<path fill-rule="evenodd" clip-rule="evenodd" d="M7.40261 0.992676C8.05602 -0.330892 9.94373 -0.330892 10.5971 0.992676L12.4632 4.7726C12.5041 4.85549 12.5833 4.91304 12.675 4.92636L12.6854 4.92787L16.4795 5.53335C17.4326 5.67477 18.0029 6.49147 18 7.30704C17.9984 7.74939 17.8315 8.19856 17.4807 8.55069L14.8332 11.4953L14.8154 11.5126C14.7492 11.5771 14.719 11.6701 14.7346 11.7611L15.4474 15.9157C15.6971 17.371 14.1693 18.4797 12.863 17.7932L9.13084 15.8317C9.04886 15.7886 8.9509 15.7886 8.86892 15.8317L5.13679 17.7932C3.83046 18.4797 2.30269 17.371 2.55237 15.9157L3.26515 11.7611C3.28077 11.6701 3.25059 11.5771 3.18433 11.5126L3.16659 11.4953L0.519271 8.55068C0.168544 8.19855 0.00159473 7.74939 1.11571e-05 7.30705C-0.00290858 6.49148 0.567387 5.67478 1.52045 5.53336L5.32476 4.92629C5.41645 4.91297 5.49562 4.85549 5.53654 4.7726L7.40261 0.992676Z" fill="#FFB300"/>
</svg>
