<svg width="16" height="17" viewBox="0 0 16 17" fill="none" xmlns="http://www.w3.org/2000/svg">
<path fill-rule="evenodd" clip-rule="evenodd" d="M14.1896 1.93992C14.098 1.8591 13.9762 1.8215 13.855 1.83668L13.7769 1.84656C13.7267 1.85294 13.6542 1.86221 13.5645 1.87383C13.3852 1.89707 13.1369 1.92972 12.8611 1.96736C12.3122 2.04227 11.6455 2.13818 11.1987 2.2194C10.1345 2.41289 9.13955 2.84649 8.37594 3.69459C7.76589 4.37213 7.61022 5.2919 7.69563 6.10063C7.77156 6.81955 8.04671 7.53439 8.46278 7.99716C8.2338 8.35794 8.02071 8.73427 7.84528 9.11213C7.39045 10.0918 6.94442 11.4966 6.71138 12.6287C6.67057 12.827 6.63305 13.0181 6.59892 13.1986C6.44099 12.8291 6.273 12.4515 6.13042 12.1664L6.12919 12.1639C6.46672 11.8049 6.68193 11.2457 6.7402 10.6939C6.80443 10.0858 6.68905 9.38052 6.21674 8.85593C5.65178 8.22848 4.97278 8.01657 4.23953 7.78774L4.15148 7.76023C3.74879 7.63416 3.23536 7.56203 2.84224 7.52084C2.64166 7.49982 2.4646 7.4861 2.33751 7.47762C2.27389 7.47338 2.22256 7.47044 2.18683 7.46854L2.14526 7.46644L2.13398 7.46592L2.12991 7.46574C1.89846 7.45604 1.70124 7.63316 1.68669 7.86436L1.68641 7.86891L1.68575 7.88019L1.68349 7.92174C1.68164 7.95748 1.67921 8.00883 1.67678 8.07256C1.67192 8.19983 1.66706 8.37735 1.66699 8.57904C1.66687 8.97432 1.68494 9.49244 1.76822 9.90613L1.78637 9.99652C1.93731 10.7497 2.07708 11.4471 2.64205 12.0746C3.11436 12.5992 3.80372 12.7877 4.41524 12.7873C4.75167 12.7872 5.09686 12.7299 5.40396 12.6184C5.59073 13.0009 5.82357 13.5446 6.01682 14.0111C6.11883 14.2574 6.20852 14.4791 6.2727 14.6391C6.30478 14.7191 6.33046 14.7837 6.34808 14.8282L6.36826 14.8792L6.37503 14.8964C6.44579 15.0766 6.62933 15.1865 6.82159 15.1637C7.01384 15.141 7.16649 14.9913 7.19311 14.7995L7.1934 14.7974L7.19442 14.7903L7.2155 14.6465C7.23054 14.5466 7.25305 14.4011 7.28279 14.2205C7.3423 13.8592 7.43053 13.3584 7.5454 12.8003C7.77741 11.6732 8.20785 10.3533 8.61762 9.47071C8.76837 9.14598 8.95222 8.81847 9.15249 8.49958C9.61366 8.72065 10.1802 8.83863 10.7368 8.8389C11.55 8.83931 12.4485 8.58835 13.0585 7.91082C13.8224 7.06251 14.1172 6.14692 14.2299 4.95747C14.2823 4.40437 14.308 3.7277 14.3208 3.19515C14.3272 2.92763 14.3304 2.69409 14.332 2.52733C14.3328 2.44393 14.3333 2.37715 14.3335 2.3311L14.3336 2.27805L14.3337 2.26049V2.25912C14.3337 2.13699 14.2812 2.02073 14.1896 1.93992ZM10.7372 7.98741C10.3245 7.9872 9.94007 7.90668 9.63723 7.78318C9.84237 7.49922 10.0508 7.23108 10.2482 6.98865C10.5287 6.64416 10.7828 6.35658 10.9664 6.15548C11.0582 6.05501 11.1322 5.97632 11.1829 5.92313C11.2082 5.89653 11.2277 5.87633 11.2406 5.86297L11.2551 5.84814L11.2585 5.84469L11.2593 5.84389C11.4244 5.67655 11.4226 5.40703 11.2553 5.24186C11.088 5.07668 10.8183 5.07852 10.6531 5.24585L10.6513 5.24775L10.6466 5.25248L10.6296 5.26996C10.6149 5.28512 10.5936 5.30722 10.5663 5.33579C10.5119 5.39293 10.4338 5.476 10.3377 5.58129C10.1455 5.79171 9.88053 6.09162 9.5879 6.45101C9.39005 6.69399 9.1776 6.96653 8.96551 7.25895C8.76186 6.95613 8.59518 6.51079 8.54242 6.0112C8.47295 5.35344 8.61183 4.70515 9.00872 4.26435C9.6125 3.59378 10.4156 3.22725 11.3511 3.05716C11.7772 2.97969 12.4269 2.88602 12.9763 2.81103C13.1598 2.78598 13.3312 2.76314 13.4778 2.74386C13.476 2.87072 13.4733 3.0167 13.4695 3.17471C13.4569 3.70239 13.4317 4.35482 13.3822 4.87718C13.2805 5.95051 13.0294 6.67069 12.4257 7.34106C12.0289 7.78186 11.3986 7.98774 10.7372 7.98741ZM5.89342 10.6045C5.86161 10.9057 5.77073 11.1724 5.66046 11.3683C5.52795 11.165 5.39118 10.9664 5.26641 10.7899L4.76812 10.1104L4.73584 10.0681L4.72723 10.0569L4.724 10.0527C4.58014 9.86675 4.31274 9.83259 4.12675 9.97645C3.94076 10.1203 3.9066 10.3877 4.05046 10.5737L4.05278 10.5767L4.06045 10.5867L4.09068 10.6262C4.1171 10.6609 4.1555 10.7116 4.20291 10.7751C4.29782 10.9021 4.42844 11.0797 4.57116 11.2815C4.70152 11.4659 4.8388 11.6661 4.96714 11.864C4.80311 11.9084 4.61513 11.9357 4.41481 11.9358C3.95511 11.9361 3.53399 11.7927 3.27483 11.5048C2.86899 11.0541 2.77023 10.5689 2.60296 9.73807C2.5373 9.41192 2.51837 8.96458 2.51849 8.5793C2.51851 8.4964 2.51941 8.41777 2.52079 8.34555C2.59276 8.35173 2.67105 8.35906 2.7535 8.36769C3.13668 8.40785 3.57959 8.47344 3.89709 8.57283C4.70587 8.82603 5.17812 8.97497 5.58395 9.42569C5.84311 9.71352 5.9417 10.1473 5.89342 10.6045Z" fill="#00A296"/>
</svg>
